<svg width="96" height="96" viewBox="0 0 96 96" fill="none" xmlns="http://www.w3.org/2000/svg" role="img" aria-labelledby="title desc">
  <title id="title">HeisenHelmet logo</title>
  <desc id="desc">A smart helmet shield with safety signal waves.</desc>
  <rect width="96" height="96" rx="22" fill="#07111F"/>
  <path d="M48 12L78 25V45C78 64 65.6 79.4 48 86C30.4 79.4 18 64 18 45V25L48 12Z" fill="url(#shield)" stroke="#EAF4FF" stroke-opacity=".78" stroke-width="3"/>
  <path d="M28 48C28 36.4 37.4 27 49 27H54C62.8 27 70 34.2 70 43V52H62.5C61.2 47 56.6 43.3 51.2 43.3H43.2C37.7 43.3 33.1 47 31.8 52H28V48Z" fill="#F8FAFC"/>
  <path d="M35 54C35 48.9 39.1 44.8 44.2 44.8H51C56.1 44.8 60.2 48.9 60.2 54V58.5H35V54Z" fill="#07111F"/>
  <path d="M39.5 58.5H67" stroke="#FF9F1C" stroke-width="4" stroke-linecap="round"/>
  <path d="M29 33C34 28.7 40.4 26.3 47 26.3" stroke="#38BDF8" stroke-width="4" stroke-linecap="round"/>
  <path d="M68 24C73 27.5 76.2 32.9 77 39" stroke="#38BDF8" stroke-width="3" stroke-linecap="round"/>
  <path d="M75 18C82.2 23.1 86.8 31.1 88 40" stroke="#38BDF8" stroke-opacity=".58" stroke-width="3" stroke-linecap="round"/>
  <circle cx="69" cy="54" r="4" fill="#FF9F1C"/>
  <defs>
    <linearGradient id="shield" x1="18" y1="12" x2="83" y2="80" gradientUnits="userSpaceOnUse">
      <stop stop-color="#0EA5E9"/>
      <stop offset=".56" stop-color="#172554"/>
      <stop offset="1" stop-color="#0F172A"/>
    </linearGradient>
  </defs>
</svg>
